:FULLY-SPECIFIED
:FORCE-ALL-JOINTS-BE-3DOF
:DEGREES
238
root 5.52563 15.6826 -25.9017 10.2444 22.4625 -6.14314
lfemur -40.3411 34.0726 -5.44597
ltibia 54.4166 -0 0
lfoot -13.0043 4.28617 -0.0675474
ltoes -6.1457 0 0
rfemur -21.1816 -14.2698 4.40336
rtibia 42.8415 -0 0
rfoot -20.1244 -0.733325 -1.76387
rtoes 42.9803 -0 0
lowerback 1.59727 -2.02738 1.71191
upperback -0.636327 -2.63311 2.78351
thorax -1.48563 -1.31164 1.97219
lowerneck -11.6505 -2.40576 -0.153543
upperneck 1.13619 -3.17878 0.210354
head 2.38082 -1.57771 -0.0895069
lclavicle 6.31458e-15 -1.4297e-14 1.59553e-30
lhumerus -52.9756 -37.0144 120.901
lradius 61.3092 -0 0
lwrist 18.5401 0 0
lhand 9.86115 14.0793 -0.191827
lfingers 7.12502 -0 0
lthumb 35.0403 41.0361 -0.000565204
rclavicle 6.31458e-15 -1.4297e-14 1.59553e-30
rhumerus -38.1892 -1.80948 -72.4061
rradius 95.4798 -0 0
rwrist -13.2616 0 0
rhand 38.4468 -19.797 -5.73059
rfingers 7.12502 -0 0
rthumb 55.8609 -38.6005 7.01336
239
root 5.63121 15.7219 -25.8951 10.1227 24.1501 -5.96162
lfemur -40.4652 33.4914 -6.40841
ltibia 53.9476 -0 0
lfoot -13.206 3.60974 -0.0359288
ltoes -2.4192 0 0
rfemur -20.4141 -12.8341 4.04492
rtibia 43.857 -0 0
rfoot -17.3341 -1.99505 -1.99665
rtoes 39.517 -0 0
lowerback 1.56765 -2.04271 1.54814
upperback -0.666982 -2.6554 2.88951
thorax -1.48626 -1.32112 2.17153
lowerneck -11.5735 -2.76854 -0.291898
upperneck 1.23287 -3.6418 0.192636
head 2.40067 -1.80962 -0.0985328
lclavicle 3.56282e-15 -1.32988e-14 1.91291e-30
lhumerus -52.8739 -36.7208 120.921
lradius 61.373 -0 0
lwrist 18.5971 0 0
lhand 9.39361 13.8352 -0.198018
lfingers 7.12502 -0 0
lthumb 34.5979 40.9082 0.00122012
rclavicle 3.56282e-15 -1.32988e-14 1.91291e-30
rhumerus -38.6046 -2.21606 -72.0261
rradius 91.7268 -0 0
rwrist -9.03131 0 0
rhand 35.0495 -18.2086 -6.17265
rfingers 7.12502 -0 0
rthumb 52.7064 -39.0554 6.94517
240
root 5.74093 15.7619 -25.8872 9.99909 25.8824 -5.74427
lfemur -40.4554 32.8047 -7.35339
ltibia 53.3543 -0 0
lfoot -13.4621 2.86176 -0.000288052
ltoes 1.62047 -0 0
rfemur -19.6608 -11.336 3.67018
rtibia 44.9516 -0 0
rfoot -14.4151 -3.28514 -2.17476
rtoes 35.915 -0 0
lowerback 1.53145 -2.05888 1.37016
upperback -0.698493 -2.67907 2.97845
thorax -1.48407 -1.3315 2.36098
lowerneck -11.4886 -3.14386 -0.42421
upperneck 1.33875 -4.12301 0.178631
head 2.42266 -2.0503 -0.108295
lclavicle 6.75598e-16 -1.21844e-14 2.18805e-30
lhumerus -52.7793 -36.4312 120.929
lradius 61.426 -0 0
lwrist 18.6729 0 0
lhand 8.96403 13.611 -0.198241
lfingers 7.12502 -0 0
lthumb 34.1901 40.7781 0.00309172
rclavicle 6.75598e-16 -1.21844e-14 2.18805e-30
rhumerus -38.9603 -2.66085 -71.5039
rradius 87.7296 -0 0
rwrist -4.61122 0 0
rhand 31.2906 -16.6092 -6.43521
rfingers 7.12502 -0 0
rthumb 49.3739 -39.2592 6.64388
241
root 5.85392 15.8022 -25.8781 9.87676 27.6498 -5.49399
lfemur -40.3253 32.0291 -8.27915
ltibia 52.6572 -0 0
lfoot -13.7609 2.05268 0.0363348
ltoes 5.90874 -0 0
rfemur -18.9377 -9.79517 3.29122
rtibia 46.1136 -0 0
rfoot -11.4059 -4.58713 -2.28995
rtoes 32.2165 -0 0
lowerback 1.49119 -2.07638 1.18059
upperback -0.729909 -2.70463 3.05086
thorax -1.47961 -1.343 2.53978
lowerneck -11.3963 -3.52877 -0.551403
upperneck 1.45155 -4.61838 0.168965
head 2.44618 -2.29777 -0.118112
lclavicle -2.29555e-15 -1.09742e-14 2.40429e-30
lhumerus -52.6897 -36.1474 120.923
lradius 61.4688 -0 0
lwrist 18.7645 0 0
lhand 8.57313 13.406 -0.193126
lfingers 7.12502 -0 0
lthumb 33.8176 40.6467 0.00493523
rclavicle -2.29555e-15 -1.09742e-14 2.40429e-30
rhumerus -39.2681 -3.13117 -70.8705
rradius 83.5474 -0 0
rwrist -0.0593236 0 0
rhand 27.2463 -15.0179 -6.51654
rfingers 7.12502 -0 0
rthumb 45.9075 -39.2248 6.15996
242
root 5.96932 15.8424 -25.8678 9.75892 29.4426 -5.21343
lfemur -40.0889 31.1811 -9.18456
ltibia 51.8765 -0 0
lfoot -14.0908 1.1929 0.0711825
ltoes 10.3811 -0 0
rfemur -18.2595 -8.23226 2.91854
rtibia 47.3316 -0 0
rfoot -8.34515 -5.88358 -2.3372
rtoes 28.4634 -0 0
lowerback 1.44945 -2.09565 0.982028
upperback -0.76028 -2.73263 3.10725
thorax -1.47344 -1.35587 2.70717
lowerneck -11.2966 -3.92032 -0.674391
upperneck 1.56898 -5.1239 0.164309
head 2.47066 -2.55005 -0.127295
lclavicle -5.29911e-15 -9.68853e-15 2.54874e-30
lhumerus -52.6029 -35.8712 120.901
lradius 61.5019 -0 0
lwrist 18.8689 0 0
lhand 8.22156 13.2193 -0.183345
lfingers 7.12502 -0 0
lthumb 33.4814 40.515 0.00665545
rclavicle -5.29911e-15 -9.68853e-15 2.54874e-30
rhumerus -39.5393 -3.61476 -70.1571
rradius 79.2393 -0 0
rwrist 4.56636 0 0
rhand 22.9927 -13.4556 -6.42094
rfingers 7.12502 -0 0
rthumb 42.3488 -38.9696 5.5431
243
root 6.08628 15.8822 -25.8564 9.64866 31.2512 -4.90507
lfemur -39.7612 30.2764 -10.0688
ltibia 51.0326 -0 0
lfoot -14.4399 0.292882 0.101871
ltoes 14.9729 -0 0
rfemur -17.64 -6.66813 2.56112
rtibia 48.5942 -0 0
rfoot -5.27202 -7.15648 -2.31493
rtoes 24.6978 -0 0
lowerback 1.40876 -2.11711 0.777073
upperback -0.788655 -2.76359 3.14816
thorax -1.46612 -1.37032 2.86237
lowerneck -11.1898 -4.31555 -0.794079
upperneck 1.68872 -5.63553 0.165395
head 2.49548 -2.80514 -0.13515
lclavicle -8.28357e-15 -8.34796e-15 2.6127e-30
lhumerus -52.5168 -35.6045 120.862
lradius 61.526 -0 0
lwrist 18.983 0 0
lhand 7.90999 13.0504 -0.169615
lfingers 7.12502 -0 0
lthumb 33.1822 40.3838 0.00817342
rclavicle -8.28357e-15 -8.34796e-15 2.6127e-30
rhumerus -39.7843 -4.09963 -69.3947
rradius 74.8645 -0 0
rwrist 9.2078 0 0
rhand 18.6054 -11.9436 -6.15894
rfingers 7.12502 -0 0
rthumb 38.7377 -38.5163 4.84077
